<mxGraphModel dx="1215" dy="727" grid="1" gridSize="10" guides="1" tooltips="1" connect="1" arrows="1" fold="1" page="1" pageScale="1" pageWidth="850" pageHeight="1100" math="0" shadow="0">
  <root>
    <mxCell id="0" />
    <mxCell id="1" parent="0" />
    <!-- Start -->
    <mxCell id="2" value="เริ่มต้น" style="ellipse;whiteSpace=wrap;html=1;fillColor=#dae8fc;strokeColor=#6c8ebf;" vertex="1" parent="1">
      <mxGeometry x="360" y="20" width="100" height="50" as="geometry" />
    </mxCell>
    <!-- Process: Initialization -->
    <mxCell id="3" value="ประกาศตัวแปร days, total_seconds&lt;br&gt;กำหนด SECONDS_PER_DAY = 86400" style="rounded=0;whiteSpace=wrap;html=1;fillColor=#d5e8d4;strokeColor=#82b366;" vertex="1" parent="1">
      <mxGeometry x="320" y="100" width="180" height="60" as="geometry" />
    </mxCell>
    <!-- Output: Prompt -->
    <mxCell id="4" value="แสดงข้อความ &quot;Input Days : &quot;" style="shape=parallelogram;perimeter=parallelogramPerimeter;whiteSpace=wrap;html=1;fixedSize=1;fillColor=#fff2cc;strokeColor=#d6b656;" vertex="1" parent="1">
      <mxGeometry x="335" y="190" width="150" height="50" as="geometry" />
    </mxCell>
    <!-- Input: Days -->
    <mxCell id="5" value="รับค่า days (วัน)" style="shape=parallelogram;perimeter=parallelogramPerimeter;whiteSpace=wrap;html=1;fixedSize=1;fillColor=#fff2cc;strokeColor=#d6b656;" vertex="1" parent="1">
      <mxGeometry x="335" y="270" width="150" height="50" as="geometry" />
    </mxCell>
    <!-- Condition: Input Validation -->
    <mxCell id="6" value="การป้อนค่าผิดพลาด&lt;br&gt;หรือ&lt;br&gt;days &lt; 0 ?" style="rhombus;whiteSpace=wrap;html=1;fillColor=#f8cecc;strokeColor=#b85450;" vertex="1" parent="1">
      <mxGeometry x="340" y="370" width="140" height="100" as="geometry" />
    </mxCell>
    <!-- Process: Calculation (False Path) -->
    <mxCell id="7" value="คำนวณ:&lt;br&gt;total_seconds = days * 86400" style="rounded=0;whiteSpace=wrap;html=1;fillColor=#d5e8d4;strokeColor=#82b366;" vertex="1" parent="1">
      <mxGeometry x="320" y="520" width="180" height="60" as="geometry" />
    </mxCell>
    <!-- Output: Result (False Path) -->
    <mxCell id="8" value="แสดงผลลัพธ์:&lt;br&gt;days วัน = total_seconds วินาที" style="shape=parallelogram;perimeter=parallelogramPerimeter;whiteSpace=wrap;html=1;fixedSize=1;fillColor=#fff2cc;strokeColor=#d6b656;" vertex="1" parent="1">
      <mxGeometry x="320" y="610" width="180" height="60" as="geometry" />
    </mxCell>
    <!-- Process: Return 0 (False Path) -->
    <mxCell id="9" value="คืนค่า 0 (Return 0)" style="rounded=0;whiteSpace=wrap;html=1;fillColor=#d5e8d4;strokeColor=#82b366;" vertex="1" parent="1">
      <mxGeometry x="345" y="700" width="130" height="50" as="geometry" />
    </mxCell>
    <!-- Output: Error (True Path) -->
    <mxCell id="11" value="แสดงข้อความ Error" style="shape=parallelogram;perimeter=parallelogramPerimeter;whiteSpace=wrap;html=1;fixedSize=1;fillColor=#fff2cc;strokeColor=#d6b656;" vertex="1" parent="1">
      <mxGeometry x="100" y="520" width="150" height="50" as="geometry" />
    </mxCell>
    <!-- Process: Return 1 (True Path) -->
    <mxCell id="12" value="คืนค่า 1 (Return 1)" style="rounded=0;whiteSpace=wrap;html=1;fillColor=#d5e8d4;strokeColor=#82b366;" vertex="1" parent="1">
      <mxGeometry x="115" y="610" width="120" height="50" as="geometry" />
    </mxCell>
    <!-- Stop -->
    <mxCell id="10" value="สิ้นสุด" style="ellipse;whiteSpace=wrap;html=1;fillColor=#dae8fc;strokeColor=#6c8ebf;" vertex="1" parent="1">
      <mxGeometry x="360" y="810" width="100" height="50" as="geometry" />
    </mxCell>
    <!-- Connections -->
    <mxCell id="13" value="" style="endArrow=classic;html=1;entryDx=0;entryDy=0;entryPerimeter=0;" edge="1" parent="1" source="2" target="3">
      <mxGeometry width="50" height="50" relative="1" as="geometry">
        <mxPoint x="410" y="70" as="sourcePoint" />
        <mxPoint x="410" y="100" as="targetPoint" />
      </mxGeometry>
    </mxCell>
    <mxCell id="14" value="" style="endArrow=classic;html=1;entryDx=0;entryDy=0;entryPerimeter=0;" edge="1" parent="1" source="3" target="4">
      <mxGeometry width="50" height="50" relative="1" as="geometry">
        <mxPoint x="410" y="160" as="sourcePoint" />
        <mxPoint x="410" y="190" as="targetPoint" />
      </mxGeometry>
    </mxCell>
    <mxCell id="15" value="" style="endArrow=classic;html=1;entryDx=0;entryDy=0;entryPerimeter=0;" edge="1" parent="1" source="4" target="5">
      <mxGeometry width="50" height="50" relative="1" as="geometry">
        <mxPoint x="410" y="240" as="sourcePoint" />
        <mxPoint x="410" y="270" as="targetPoint" />
      </mxGeometry>
    </mxCell>
    <mxCell id="16" value="" style="endArrow=classic;html=1;entryDx=0;entryDy=0;entryPerimeter=0;" edge="1" parent="1" source="5" target="6">
      <mxGeometry width="50" height="50" relative="1" as="geometry">
        <mxPoint x="410" y="320" as="sourcePoint" />
        <mxPoint x="410" y="370" as="targetPoint" />
      </mxGeometry>
    </mxCell>
    <!-- False Path (Right Side) -->
    <mxCell id="17" value="เท็จ (เงื่อนไข OK)" style="edgeStyle=orthogonalEdgeStyle;html=1;align=left;verticalAlign=middle;endArrow=classic;entryDx=0;entryDy=0;entryPerimeter=0;" edge="1" parent="1" source="6" target="7">
      <mxGeometry relative="1" as="geometry">
        <mxPoint x="480" y="420" as="sourcePoint" />
        <mxPoint x="410" y="480" as="targetPoint" />
        <Array as="points">
          <mxPoint x="550" y="420" />
          <mxPoint x="550" y="420" />
        </Array>
      </mxGeometry>
    </mxCell>
    <mxCell id="18" value="" style="endArrow=classic;html=1;entryDx=0;entryDy=0;entryPerimeter=0;" edge="1" parent="1" source="7" target="8">
      <mxGeometry width="50" height="50" relative="1" as="geometry">
        <mxPoint x="410" y="580" as="sourcePoint" />
        <mxPoint x="410" y="610" as="targetPoint" />
      </mxGeometry>
    </mxCell>
    <mxCell id="19" value="" style="endArrow=classic;html=1;entryDx=0;entryDy=0;entryPerimeter=0;" edge="1" parent="1" source="8" target="9">
      <mxGeometry width="50" height="50" relative="1" as="geometry">
        <mxPoint x="410" y="670" as="sourcePoint" />
        <mxPoint x="410" y="700" as="targetPoint" />
      </mxGeometry>
    </mxCell>
    <mxCell id="20" value="" style="endArrow=classic;html=1;entryDx=0;entryDy=0;entryPerimeter=0;" edge="1" parent="1" source="9" target="10">
      <mxGeometry width="50" height="50" relative="1" as="geometry">
        <mxPoint x="410" y="750" as="sourcePoint" />
        <mxPoint x="410" y="810" as="targetPoint" />
      </mxGeometry>
    </mxCell>
    <!-- True Path (Left Side - Error) -->
    <mxCell id="21" value="จริง (มีข้อผิดพลาด)" style="edgeStyle=orthogonalEdgeStyle;html=1;align=right;verticalAlign=middle;endArrow=classic;entryDx=0;entryDy=0;entryPerimeter=0;" edge="1" parent="1" source="6" target="11">
      <mxGeometry relative="1" as="geometry">
        <mxPoint x="340" y="420" as="sourcePoint" />
        <mxPoint x="175" y="520" as="targetPoint" />
        <Array as="points">
          <mxPoint x="270" y="420" />
          <mxPoint x="270" y="420" />
        </Array>
      </mxGeometry>
    </mxCell>
    <mxCell id="22" value="" style="endArrow=classic;html=1;entryDx=0;entryDy=0;entryPerimeter=0;" edge="1" parent="1" source="11" target="12">
      <mxGeometry width="50" height="50" relative="1" as="geometry">
        <mxPoint x="175" y="570" as="sourcePoint" />
        <mxPoint x="175" y="610" as="targetPoint" />
      </mxGeometry>
    </mxCell>
    <mxCell id="23" value="" style="endArrow=classic;html=1;entryDx=0;entryDy=0;entryPerimeter=0;exitDx=0;exitDy=0;exitPerimeter=0;" edge="1" parent="1" source="12" target="10">
      <mxGeometry width="50" height="50" relative="1" as="geometry">
        <mxPoint x="175" y="660" as="sourcePoint" />
        <mxPoint x="410" y="810" as="targetPoint" />
        <Array as="points">
          <mxPoint x="175" y="780" />
          <mxPoint x="410" y="780" />
        </Array>
      </mxGeometry>
    </mxCell>
  </root>
</mxGraphModel>
